<svg width="517" height="342" viewBox="0 0 517 342" fill="none" xmlns="http://www.w3.org/2000/svg">
<path d="M167.647 341.721C158.442 342.132 149.102 341.75 139.881 341.748C107.682 341.742 75.4822 341.729 43.2827 341.736C25.7954 341.739 8.29416 345.274 1.13995 321.783C-0.536421 316.276 0.131914 309.806 0.129703 304.083C0.0877019 217.151 0.142231 130.22 0.12823 43.2889C0.125283 24.462 -0.414843 3.89421 22.4162 0.45292L23.4573 0.354836C32.8494 -0.389472 42.6763 0.268286 52.1074 0.268286C84.9185 0.268286 117.73 0.271584 150.541 0.278178C157.214 0.279002 164.5 -0.392771 171.082 0.598816C193.295 3.94532 191.664 28.0228 191.666 46.0337C191.676 131.241 191.247 216.47 191.685 301.674C191.783 320.693 190.228 340.099 167.647 341.721ZM94.7578 28.7127C86.2478 28.7078 74.3106 25.8501 70.0419 34.5468C73.304 41.6223 74.9089 40.8277 81.5237 40.8186C87.0981 40.8104 92.6747 40.7362 98.2484 40.8186C104.943 40.7914 122.924 43.7069 122.506 33.744C122.188 26.1724 100.124 28.6954 94.7578 28.7127ZM46.939 29.3573C40.4458 32.8126 42.1103 41.8523 49.7325 41.1945C56.1284 37.346 55.1654 28.88 46.939 29.3573ZM82.0653 62.3393L20.0803 62.5091L20.0398 283.963L112.41 283.978L173.746 284.038L173.7 62.8503L82.0653 62.3393ZM94.2464 299.506C79.3809 303.421 81.6306 326.929 97.5262 325.467C112.53 320.617 109.866 298.779 94.2464 299.506Z" fill="#949CD2"/>
<path d="M492.098 341.666C488.755 341.943 485.294 341.741 481.939 341.742C441.62 341.76 401.301 341.766 360.982 341.75C353.968 341.748 346.361 342.47 339.447 341.47C319.415 338.575 318.626 317.719 318.627 300.85C318.632 215.738 318.605 130.626 318.63 45.5142C318.635 25.7962 318.068 2.93699 342.167 0.465854L342.297 0.449371C353.179 -0.257021 364.333 0.27875 375.25 0.276277C408.794 0.268035 442.338 0.272155 475.882 0.277925C482.647 0.278749 490.02 -0.362525 496.705 0.711487C518.76 4.25334 516.646 30.0099 516.65 47.7908C516.666 132.533 516.819 217.28 516.661 302.022C516.651 307.486 516.769 313.079 516.156 318.509C514.655 331.786 503.58 341.067 492.098 341.666ZM401.819 28.7199C388.712 29.2252 396.736 37.579 397.034 40.3576C406.54 41.6006 423.715 41.1868 433.379 40.539C438.413 40.3906 442.121 39.3751 441.914 32.6417C440.091 26.9807 432.959 28.7116 428.892 28.7042C419.867 28.6877 410.843 28.7034 401.819 28.7199ZM391.062 63.5021L330.96 63.6471L330.626 283.985L443.741 283.999L504.427 284.122C506.038 281.424 505.078 276.434 505.044 273.331C504.311 206.501 504.997 139.578 505.019 72.7396C505.02 70.1489 505.982 65.932 504.448 63.7353L391.062 63.5021ZM414.902 299.632C396.742 308.944 411.36 329.705 420.069 325.025C434.978 322.518 431.531 296.764 414.902 299.632Z" fill="#949CD2"/>
<path d="M249.482 59.7903C237.43 59.8175 218.962 61.133 207.392 59.726C199.73 58.7937 199.985 47.278 209.049 46.0672C214.349 45.9526 248.787 44.9544 252.05 46.8873C258.7 50.8281 255.492 58.2003 249.482 59.7903Z" fill="#949CD2"/>
<path d="M271.051 59.7729C260.578 53.4005 266.472 46.2995 276.598 46.0918C280.433 46.0127 284.276 46.077 288.111 46.1174L303.27 45.9756C309.415 46.3539 313.266 54.0674 305.634 59.7935L287.404 59.796L271.051 59.7729Z" fill="#949CD2"/>
<path d="M247.896 85.449C246.019 85.4144 244.578 84.8193 243.131 83.5071C233.375 74.657 247.597 72.0094 254.017 71.9179C260.618 71.824 267.206 71.81 273.806 71.599C277.324 71.5042 281.744 74.3775 281.857 78.7519C282.069 86.8865 271.936 85.421 267.427 85.4301C260.916 85.4441 254.406 85.4474 247.896 85.449Z" fill="#949CD2"/>
<path d="M302.672 86.0299C290.787 86.8805 286.818 74.6831 299.063 71.5006C310.693 70.9039 315.546 82.0322 302.672 86.0299Z" fill="#949CD2"/>
<path d="M205.448 84.8319C200.494 80.9842 200.449 73.7184 207.189 71.9553C211.032 71.6651 223.025 70.8615 226.567 72.2677C232.866 74.7693 231.718 82.2223 225.804 84.864C220.611 86.3378 210.507 85.8943 205.448 84.8319Z" fill="#949CD2"/>
<path d="M123.72 251.87C108.279 252.948 92.5919 252.359 77.1053 252.216C60.0262 252.057 44.6648 243.027 42.4063 222.083C41.7969 216.425 42.1661 210.326 42.1595 204.616C42.1329 182.049 42.1388 159.481 42.1595 136.914C42.1661 129.851 41.6812 122.285 42.7482 115.321C45.1084 99.925 57.9777 89.1486 71.3106 87.4127C78.495 86.5374 86.4119 87.21 93.6766 87.2059C115.729 87.1951 147.157 83.0837 151.383 115.685C152.322 122.928 151.893 130.668 151.901 137.987C151.924 160.821 151.919 183.655 151.896 206.49C151.871 230.289 148.488 248.172 123.72 251.87ZM97.1679 119.983C85.7936 133.601 74.6183 136.78 58.9445 137.798C58.5503 145.88 58.1767 154.715 59.4905 162.694C62.4623 180.736 75.5696 199.43 92.8933 200.52L97.299 200.642C107.494 200.339 115.097 197.579 122.268 189.15C135.94 173.079 135.753 158.108 135.729 137.933C118.698 136.721 110.122 134.086 97.1679 119.983Z" fill="#949CD2"/>
<path d="M371.291 130.327C372.118 128.587 372.492 126.732 373.184 124.938C379.681 108.108 396.634 97.08 412.146 94.0311C433.263 91.9721 454.459 102.337 462.723 125.58C463.248 127.056 463.832 128.165 463.654 129.762C484.689 134.385 486.206 164.322 466.141 169.574C467.355 171.873 465.95 176.18 465.609 178.67C461.887 205.877 449.889 235.398 422.701 240.119L422.339 240.235C413.87 242.614 403.636 238.276 396.62 233.202C380.955 221.87 374.071 202.951 370.651 183.266C369.882 178.838 369.792 174.267 368.932 169.873L368.874 169.588C349.857 160.499 351.767 133.419 371.291 130.327ZM404.553 119.152C387.912 122.197 382.061 133.553 381.313 151.054C380.32 174.27 383.846 206.497 401.869 220.919C410.973 228.204 421.35 229.052 430.896 222.723C431.396 222.392 432.267 221.952 432.574 221.388L432.652 221.181C451.443 211.177 454.987 171.883 454.65 151.794C454.307 131.386 445.284 119.593 425.547 119.203C426.26 121.28 425.352 125.035 425.17 127.269C422.943 129.028 419.785 123.951 418.116 122.528C413.994 119.014 409.541 118.865 404.553 119.152Z" fill="#949CD2"/>
<path d="M251.02 110.798C237.843 111.828 224.391 111.192 211.163 111.023C199.32 110.872 199.495 99.8448 207.495 97.461L251.592 97.3877C258.265 101.459 258.477 108.325 251.02 110.798Z" fill="#949CD2"/>
<path d="M304.487 110.821C294.508 111.428 284.212 111.423 274.211 110.874C265.675 110.406 262.153 100.736 271.861 97.3923C281.514 97.4014 291.166 97.4286 300.818 97.3115C310.406 97.1945 313.852 107.602 304.487 110.821Z" fill="#949CD2"/>
<path d="M227.466 135.908C222.736 136.142 208.34 137.536 205.033 135.269C198.499 130.791 202.343 123.643 208.443 122.554C213.14 122.38 227.112 121.184 230.856 123.682C237.906 128.385 233.784 134.719 227.466 135.908Z" fill="#949CD2"/>
<path d="M247.965 135.869C241.39 131.441 242.333 125.514 249.009 122.512C254.536 122.14 301.8 121.346 305.107 123.008C311.611 126.276 311.644 134.04 304.718 135.982C298.259 136.761 291.237 136.121 284.705 136.122C272.474 136.124 260.188 136.399 247.965 135.869Z" fill="#949CD2"/>
<path d="M398.293 156.165C395.15 156.892 390.29 158.616 387.354 156.715C381.082 152.654 386.909 145.585 392.811 143.885C398.311 143.145 407.023 143.116 410.362 149.145C414.055 155.813 406.499 159.211 401.752 157.775C400.703 156.936 399.51 156.584 398.293 156.165Z" fill="#949CD2"/>
<path d="M440.441 157.199C436.219 154.541 431.607 160.089 427.637 158.006C420.229 154.118 424.284 146.154 431.578 143.885C451.548 141.437 453.886 155.573 445.951 157.627L445.555 157.721C443.788 158.187 442.17 157.637 440.441 157.199Z" fill="#949CD2"/>
<path d="M78.0392 158.162C69.2212 159.344 66.7026 149.002 74.2422 144.898C83.1759 144.4 85.9694 154.341 78.0392 158.162Z" fill="#949CD2"/>
<path d="M120.695 157.807C112.032 159.69 108.663 149.481 116 144.888C124.417 144.456 128.708 153.268 120.695 157.807Z" fill="#949CD2"/>
<path d="M275.941 161.816C260.042 161.444 244.083 161.745 228.177 161.741C221.508 161.738 214.544 162.229 207.925 161.633C198.929 160.822 200.402 149.569 208.746 148.077C229.047 147.147 249.498 147.971 269.83 148.022C277.148 148.041 279.115 147.906 282.53 155.982L282.19 156.669C280.669 159.565 278.82 161 275.941 161.816Z" fill="#949CD2"/>
<path d="M303.3 162.151C292.168 163.389 284.757 152.231 297.551 148.004C312.678 147.174 313.885 159.635 303.3 162.151Z" fill="#949CD2"/>
<path d="M97.9722 187.084C93.0204 187.338 84.0344 188.629 80.2756 184.64C77.9265 182.147 77.7828 178.755 80.0553 176.145C83.6637 171.998 91.8098 173.299 96.6141 173.256C101.021 173.44 110.103 171.806 113.327 174.89C116.049 177.493 116.789 181.462 114.152 184.475C110.853 188.242 102.403 187.051 97.9722 187.084Z" fill="#949CD2"/>
<path d="M251.005 187.11C245.405 187.783 209.228 188.07 206.018 186.739C199.068 183.859 201.713 175.242 207.698 173.522C220.829 172.419 234.599 173.014 247.81 173.518C253.174 173.723 254.612 175.561 256.542 181.354C255.238 184.462 253.878 185.913 251.005 187.11Z" fill="#949CD2"/>
<path d="M303.576 187.281C298.668 187.298 273.714 188.416 270.129 186.68C262.936 183.198 264.982 175.339 271.633 173.51C280.343 173.054 289.15 173.352 297.877 173.336C312.798 173.308 312.459 185.368 303.576 187.281Z" fill="#949CD2"/>
<path d="M431.132 189.441C428.822 189.896 425.775 189.48 423.372 189.489C417.522 189.512 391.803 192.589 397.188 180.071C398.145 177.847 399.777 176.792 401.767 175.962C407.63 175.344 426.222 175.056 432.135 175.828C440.495 176.918 438.848 188.475 431.132 189.441Z" fill="#949CD2"/>
<path d="M302.936 212.881C289.636 213.771 284.541 201.841 297.255 198.26C310.554 197.294 314.049 209.875 302.936 212.881Z" fill="#949CD2"/>
<path d="M225.092 212.38C220.83 212.53 216.564 212.531 212.3 212.51C196.873 212.434 201.053 200.282 207.909 198.697C210.643 198.639 225.605 197.832 227.602 199.283C233.582 203.629 231.521 211.182 225.092 212.38Z" fill="#949CD2"/>
<path d="M274.179 212.457C268.601 212.61 248.225 213.756 244.366 211.315C238.071 207.333 241.604 200.044 247.324 198.707L275.021 198.62C280.866 202.496 282.53 210.684 274.179 212.457Z" fill="#949CD2"/>
<path d="M429.789 211.466L429.63 211.726C421.168 221.599 390.882 210.52 403.964 198.763C409.215 197.936 412.163 202.614 417.047 202.593C421.349 202.574 425.944 197.77 430.06 199.039C436.789 201.116 435.213 209.012 429.789 211.466Z" fill="#949CD2"/>
<path d="M206.313 237.565L204.196 235.961C199.166 231.289 202.647 224.399 209.785 223.854C218.09 223.418 242.745 222.358 250.737 223.77C257.359 224.941 258.402 236.489 249.1 237.615L206.313 237.565Z" fill="#949CD2"/>
<path d="M265.262 230.658L266.004 228.955C267.428 225.912 269.471 224.753 272.282 223.781C279.784 223.169 295.444 222.971 303.019 223.694C311.391 224.493 311.255 236.273 303.323 237.666C296.163 237.656 289.002 237.628 281.841 237.662C274.36 237.698 269.048 239.605 265.262 230.658Z" fill="#949CD2"/>
<path d="M269.57 262.333C263.438 262.362 252.079 263.334 246.32 262.29C241.552 261.427 236.82 248.946 252.275 248.622C257.445 248.621 273.72 247.235 277.248 250.006C280.486 252.549 281.551 256.686 278.633 259.986C276.207 262.729 272.737 262.327 269.57 262.333Z" fill="#949CD2"/>
<path d="M302.679 262.659C286.312 263.053 287.203 250.941 298.041 248.54C309.962 247.005 315.26 260.567 302.679 262.659Z" fill="#949CD2"/>
<path d="M205.917 262.283C200.556 257.947 200.819 251.263 207.205 248.918C212.421 248.632 217.611 248.515 222.832 248.74C234.704 249.253 233.519 259.701 226.229 262.203C219.888 262.77 212.211 263.135 205.917 262.283Z" fill="#949CD2"/>
</svg>
