<svg width="727" height="460" viewBox="0 0 727 460" fill="none" xmlns="http://www.w3.org/2000/svg">
<path d="M663.861 324.577C661.236 320.668 666.655 319.032 668.826 316.059C669.871 314.63 670.343 312.381 671.849 311.535L672.271 312.376C673.955 313.233 689.737 327.816 691.421 330.455L691.675 331.441C689.879 332.967 682.231 340.744 680.636 340.676L679.749 340.135L680.611 338.945C677.742 334.338 669.354 326.425 663.861 324.577Z" fill="#FDB5A1"/>
<path d="M681.611 109.89L682.973 109.603C684.809 111.784 691.916 116.452 692.1 118.795C689.335 123.402 672.787 141.327 669.827 142.339C667.848 137.545 667.576 131.832 665.717 126.855C669.95 124.682 678.613 114.898 681.818 111.307L681.611 109.89Z" fill="#FDB5A1"/>
<path d="M43.4823 110.771C48.661 116.206 54.2526 120.472 60.0103 125.208C59.6562 127.532 55.2947 143.118 55.1307 143.285C47.3988 135.179 40.549 127.757 34.3223 118.372C36.9886 115.974 40.198 112.178 43.4823 110.771Z" fill="#FDB5A1"/>
<path d="M684.144 192.147C717.568 189.007 721.578 235.246 691.168 238.874L690.368 239.235C679.85 241.815 668.386 231.865 665.373 222.534L664.742 220.632C660.919 207.159 672.04 195.505 684.144 192.147Z" fill="#FEBCAC"/>
<path d="M32.3431 192.479C69.0383 189.891 69.4834 232.138 41.8902 239.206C12.7258 245.575 0.955398 199.905 32.3431 192.479Z" fill="#FEBCAC"/>
<path d="M576.508 287.654L576.859 287.467C578.602 286.513 579.859 285.145 581.496 284.073C595.468 274.923 610.456 281.037 618.396 294.156L618.411 295.456C617.536 298.851 619.308 304.943 619.294 308.719C620.816 317.484 605.639 327.18 598.716 328.477L598.123 328.597C583.592 331.339 578.933 320.497 571.432 313.811L573.008 312.441C570.932 303.482 574.749 296.813 577.632 288.762L576.508 287.654Z" fill="#FEBCAC"/>
<path d="M621.166 136.154C623.905 134.748 624.467 131.373 626.058 128.753C635.119 113.821 654.424 113.354 665.716 126.855C667.575 131.832 667.847 137.545 669.827 142.339C675.983 154.047 656.616 171.054 639.079 165.505C625.331 161.155 627.567 154.985 623.299 148.342C625.336 145.834 625.247 138.589 621.166 136.154Z" fill="#FEBCAC"/>
<path d="M691.421 330.455L695.438 329.246C713.668 323.054 728.105 340.107 725.449 357.94L725.366 358.544C721.005 387.605 670.265 381.719 677.951 345.875L679.749 340.134L680.636 340.676C682.231 340.744 689.879 332.967 691.675 331.441L691.421 330.455Z" fill="#FEBCAC"/>
<path d="M681.61 109.89L681.534 109.589C680.925 107.326 679.561 105.209 678.72 102.998C666.593 71.0493 717.663 57.2003 725.355 90.1389C730.367 111.597 711.843 122.983 692.099 118.795C691.915 116.452 684.808 111.784 682.972 109.603L681.61 109.89Z" fill="#FEBCAC"/>
<path d="M34.3237 118.372L29.9132 119.688C15.9086 122.695 3.87418 114.249 0.859824 100.457L0.570789 98.8418C-0.180299 92.1548 0.875823 86.05 5.10232 80.7075C26.4328 53.7385 64.2592 85.934 43.4838 110.77C40.1994 112.178 36.99 115.974 34.3237 118.372Z" fill="#FEBCAC"/>
<path d="M108.114 293.642C114.172 278.169 139.597 274.461 149.335 288.352C149.165 289.829 150.912 292.088 151.564 293.502C152.963 296.532 155.424 306.678 156.98 308.452L157.243 308.696L153.761 314.915C141.372 334.14 111.058 331.298 106.771 307.98C105.397 308.276 104.106 308.568 102.792 309.083C101.483 306.424 102.258 300.488 102.467 297.509L104.185 299.08C105.641 298.556 107.293 295.027 108.114 293.642Z" fill="#FEBCAC"/>
<path d="M108.114 293.642C109.535 293.182 109.546 292.856 110.34 291.646L110.014 294.254C110.157 298.572 109.028 303.317 108.581 307.659L107.778 306.508C107.321 306.88 106.902 307.953 106.771 307.979C105.397 308.275 104.106 308.567 102.792 309.083C101.483 306.424 102.258 300.488 102.467 297.508L104.185 299.08C105.641 298.556 107.293 295.027 108.114 293.642Z" fill="#FDB5A1"/>
<path d="M568.193 139.815C569.013 138.041 569.174 136.108 569.627 134.225C574.025 115.901 598.699 107.08 612.247 121.797C614.554 124.304 618.954 130.288 618.839 133.697C619.893 134.396 620.884 134.814 621.167 136.154C625.248 138.589 625.337 145.834 623.3 148.342C622.111 147.472 619.871 147.869 618.435 147.92C611.458 161.247 596.095 167.425 582.352 159.786C580.631 158.83 579.04 157.545 577.083 157.159L578.054 156.034C571.539 146.614 573.816 146.661 570.36 139.15C569.325 136.901 571.75 137.67 568.193 139.815Z" fill="#FEBCAC"/>
<path d="M618.838 133.697C619.892 134.396 620.883 134.815 621.166 136.155C625.247 138.59 625.336 145.835 623.299 148.343C622.11 147.472 619.87 147.869 618.434 147.92C618.285 143.313 618.108 138.241 618.838 133.697Z" fill="#FDB5A1"/>
<path d="M622.998 296.958L623.254 296.737C625.284 294.874 626.351 291.984 627.837 289.684C644.87 263.315 684.042 287.753 672.271 312.376L671.849 311.535C670.343 312.381 669.871 314.63 668.827 316.059C666.655 319.032 661.236 320.668 663.861 324.577C662.7 324.729 661.639 325.542 660.589 326.055C649.865 331.295 633.094 327.01 627.512 316.103C626.405 313.941 626.577 311.216 624.845 309.413L624.618 309.197C622.798 308.781 621.149 308.722 619.294 308.718C619.308 304.942 617.536 298.85 618.411 295.455L618.641 295.617C620.411 296.91 621.366 299.755 622.998 296.958Z" fill="#FEBCAC"/>
<path d="M618.411 295.456L618.641 295.618C620.411 296.91 621.366 299.755 622.998 296.959C626.382 298.975 626.389 306.07 624.618 309.198C622.798 308.782 621.149 308.723 619.294 308.719C619.308 304.943 617.536 298.851 618.411 295.456Z" fill="#FDB5A1"/>
<path d="M60.011 125.208C85.3439 100.475 104.935 137.158 105.145 137.187C107.438 134.629 108.289 131.12 109.865 128.112C123.974 101.194 161.204 119.371 157.334 141.975L156.863 139.619C155.507 141.012 152.139 149.965 146.98 155.566L147.092 156.629C140.102 164.71 126.527 164.279 117.73 159.861C112.455 157.212 111.155 152.589 109.434 147.383L103.389 147.134L100.65 153.162C91.7577 170.883 61.5432 171.115 55.3514 150.848C54.7074 148.74 54.0793 145.285 55.1314 143.285C55.2954 143.118 59.6569 127.532 60.011 125.208Z" fill="#FEBCAC"/>
<path d="M54.2311 311.507L53.7751 309.778C44.36 278.337 92.1766 264.518 102.468 297.509C102.259 300.489 101.484 306.424 102.793 309.083C93.5297 322.539 81.8554 336.212 63.4902 324.08C56.7754 327.248 49.5056 331.824 45.5901 338.357C46.4002 339.391 46.8403 340.619 47.2373 341.857C57.8306 374.826 16.1687 391 2.99017 364.714L2.02806 362.729C-6.71396 341.757 14.3565 320.665 35.59 330.105L54.2311 311.507Z" fill="#FEBCAC"/>
<path d="M223.087 177.798L222.735 163.763C222.48 129.6 222.708 95.4334 222.714 61.2704C222.719 32.723 231.831 7.44812 264.193 1.44915C271.797 0.0395379 280.224 0.620911 287.952 0.61651C333.017 0.591103 378.085 0.857582 423.149 0.621112C436.278 0.552192 450.305 -1.19542 463.231 1.49607C495.471 8.20805 503.135 33.6252 503.188 61.7535C503.262 100.463 503.19 139.173 503.172 177.882C516.87 179.367 531.608 178.306 545.39 178.327L546.294 177.596C550.949 171.482 568.908 143.563 568.193 139.815C571.749 137.67 569.324 136.901 570.359 139.15C573.815 146.662 571.538 146.614 578.054 156.034L577.083 157.159C573.991 164.719 561.763 185.033 557.433 191.571C553.886 196.929 545.375 194.634 539.86 194.644C527.547 194.667 515.219 194.531 502.907 194.699L503.085 249.329L552.199 250.154C557.275 253.415 563.465 268.395 566.97 274.015C569.845 278.622 573.958 282.996 576.509 287.653L577.633 288.761C574.749 296.813 570.932 303.482 573.008 312.44L571.432 313.811L571.408 313.074C570.808 310.076 544.84 268.49 541.822 266.02L503.052 266.041L503.286 406.374C503.431 433.106 487.013 453.749 460.613 458.303C453.825 459.474 446.256 458.799 439.366 458.799C382.4 458.796 325.398 459.608 268.444 458.754C246.654 458.428 228.121 439.36 223.9 418.79C222.257 410.779 222.737 401.763 222.731 393.579C222.699 351.445 221.799 308.471 222.554 266.422L182.558 266.068L157.243 308.695L156.98 308.451C155.424 306.678 152.963 296.532 151.564 293.502C150.912 292.087 149.165 289.829 149.335 288.351C159.03 278.277 165.76 262.879 172.487 250.749C183.36 248.137 210.575 250.101 222.78 249.901L222.37 195.054C210.123 193.499 196.685 194.698 184.328 194.632C172.079 194.567 170.925 196.692 164.236 185.723C158.595 176.475 153.888 165.699 147.428 157.071L147.092 156.628L146.98 155.565C152.139 149.964 155.507 141.012 156.864 139.618L157.335 141.974C158.196 147.969 175.911 172.58 179.808 178.077L223.087 177.798ZM238.55 60.5972L238.606 363.871L238.702 368.023C240.819 369.885 245.487 368.727 248.195 368.778C328.042 370.266 407.967 366.925 487.763 369.585L487.699 358.154L487.71 60.5902L238.55 60.5972ZM487.699 358.154L487.763 369.585C407.967 366.925 328.042 370.266 248.195 368.778C245.487 368.727 240.819 369.885 238.702 368.023L238.606 363.871C237.588 367.107 238.727 413.03 239.17 415.862C242.654 438.115 263.278 443.489 282.069 443.884C331.421 444.922 380.907 444.006 430.272 444.041C439.373 444.047 449.024 444.978 458.017 443.566C491.419 438.322 487.679 408.274 487.67 384.642C487.667 376.067 489.157 366.545 487.699 358.154ZM238.55 60.5972L487.71 60.5902L487.8 56.3459C487.317 12.0689 454.677 13.9514 419.84 14.6446C373.843 15.5589 327.802 13.8354 281.786 14.7187C249.934 15.3298 237.765 29.6571 238.55 60.5972Z" fill="#EE9A83"/>
<path d="M238.549 60.5971C237.764 29.657 249.933 15.3298 281.785 14.7186C327.801 13.8353 373.842 15.5588 419.839 14.6446C454.676 13.9514 487.316 12.0688 487.799 56.3458L487.709 60.5901L238.549 60.5971ZM350.593 27.5093C345.977 27.5914 341.359 27.6714 336.745 27.8124C315.33 28.4656 319.924 43.1179 330.578 44.5033C342.379 46.0378 364.373 44.6404 376.853 44.6224C387.019 44.7054 415.224 46.795 402.44 28.9538C396.804 25.9179 358.895 27.3443 350.593 27.5093Z" fill="#FEBCAC"/>
<path d="M487.699 358.154C489.158 366.546 487.667 376.068 487.67 384.642C487.679 408.275 491.419 438.323 458.017 443.566C449.024 444.979 439.373 444.048 430.272 444.042C380.907 444.007 331.421 444.923 282.069 443.885C263.278 443.489 242.654 438.116 239.17 415.862C238.727 413.03 237.588 367.108 238.606 363.872L238.702 368.023C240.82 369.886 245.487 368.727 248.196 368.778C328.042 370.267 407.967 366.926 487.763 369.586L487.699 358.154ZM362.076 386.698C325.226 392.652 334.562 440.497 364.793 438.467C402.893 430.627 389.792 382.602 362.076 386.698Z" fill="#FEBCAC"/>
<path d="M358.295 132.54L358.572 132.502C369.992 131.318 382.987 131.176 388.68 142.902C389.886 145.387 390.789 148.321 393.027 150.079L393.287 150.279C400.047 155.577 404.177 150.217 410.791 148.443C420.679 145.792 441.849 169.1 444.019 178.326L438.754 191.042C440.197 193.416 442.206 196.292 442.999 198.948C445.754 208.174 453.322 201.044 458.367 209.702C461.403 214.911 461.173 236.498 459.572 242.554C457.195 251.549 449.244 251.322 442.604 255.228L442.109 255.524C439.726 265.395 445.891 272.935 443.693 278.692C440.408 287.292 431.214 295.968 423.848 300.956C416.155 306.165 411.473 303.43 404.285 298.487C399.721 300.52 394.683 302.838 390.852 306.066C386.25 317.06 385.372 320.869 371.867 320.943C363.475 321.8 351.992 322.265 344.137 319.07C335.351 315.495 341.396 305.741 325.446 299.519C310.42 305.392 310.917 309.592 296.856 295.63C274.962 273.888 285.695 278.575 285.591 256.226L285.383 256.099C270.061 246.875 265.427 253.331 265.406 231.419C265.388 211.941 264.424 209.16 283.142 201.85C284.13 198.117 285.261 193.016 285.053 189.159C284.109 171.654 278.512 176.55 294.999 160.649C300.445 155.396 308.653 145.459 317.402 148.104L317.903 148.267C322.118 149.599 324.736 152.671 329.436 152.093C342.166 150.53 328.979 134.817 358.295 132.54ZM360.789 148.927C350.99 150.132 352.896 152.742 351.82 161.694C333.128 166.551 338.281 164.136 327.464 178.022C323.76 182.777 319.195 186.794 315.791 191.828C311.079 198.795 305.008 209.824 304.661 218.177L304.555 221.208C304.515 240.47 306.886 235.054 312.766 251.348L312.568 251.789C310.421 256.368 303.026 260.024 304.119 265.707C305.62 267.279 313.246 269.899 318.23 274.794L306.779 277.775C308.636 280.435 310.544 282.688 313.25 284.51L314.077 285.075C317.524 283.202 320.753 281.054 324.481 279.759C327.879 281.12 346.525 291.947 350.907 294.805L353.242 303.901L375.245 303.86C375.697 302.409 376.271 300.916 376.561 299.427C377.139 297.271 377.688 295.237 378.706 293.241C383.299 290.478 398.092 281.514 401.674 280.222L414.783 285.71C419.998 282.529 426.342 277.879 429.354 272.428L430.013 271.353C426.199 262.417 424.005 258.035 427.886 248.271C430.393 241.961 439.582 240.994 444.323 236.482C447.776 200.884 434.025 229.72 421.619 197.859C423.653 191.979 426.377 186.569 427.912 180.503C425.307 173.614 420.665 169.064 414.177 165.658C398.619 170.703 393.24 171.405 378.128 160.243C376.593 156.951 376.085 153.398 375.335 149.868C370.537 149.002 365.656 148.673 360.789 148.927Z" fill="#EE9A83"/>
<path d="M320.803 168.604C323.339 168.506 328.014 168.119 329.768 170.338C326.726 175.14 315.451 177.69 307.654 186.538L304.175 191.479L302.525 187.326C301.918 185.646 301.65 183.015 302.478 181.374L304.086 178.671C308.037 173.325 314.318 169.658 320.803 168.604Z" fill="#FDB5A1"/>
<path d="M360.789 148.927C365.657 148.674 370.537 149.002 375.335 149.868C376.085 153.398 376.593 156.951 378.128 160.243C393.24 171.405 398.619 170.703 414.177 165.659C420.665 169.065 425.307 173.614 427.912 180.503C426.378 186.569 423.653 191.98 421.619 197.859C434.025 229.721 447.776 200.884 444.323 236.483C439.582 240.994 430.393 241.961 427.886 248.271C424.005 258.035 426.2 262.417 430.013 271.353L429.354 272.428C426.343 277.88 419.998 282.529 414.783 285.71L401.674 280.222C398.092 281.514 383.3 290.479 378.706 293.241C377.688 295.237 377.139 297.272 376.561 299.427C376.271 300.917 375.697 302.409 375.245 303.86L353.242 303.901L350.907 294.806C346.525 291.947 327.879 281.121 324.481 279.759C320.753 281.055 317.524 283.202 314.077 285.075L313.25 284.511C310.544 282.688 308.636 280.436 306.779 277.776L318.23 274.794C313.246 269.899 305.621 267.28 304.119 265.707C303.026 260.025 310.421 256.368 312.568 251.789L312.766 251.348C306.886 235.054 304.515 240.471 304.555 221.208L304.661 218.177C305.008 209.825 311.079 198.796 315.791 191.828C319.195 186.794 323.76 182.778 327.464 178.022C338.281 164.136 333.128 166.551 351.82 161.695C352.896 152.742 350.99 150.132 360.789 148.927ZM362.833 182.266C318.208 185.457 302.652 235.66 334.082 262.083C343.607 270.091 354.048 272.151 366.101 273.073C394.633 272.253 411.757 252.047 410.647 223.739C410.014 207.589 392.559 186.505 376.392 182.823C372.128 181.853 367.18 182.126 362.833 182.266Z" fill="#FEBCAC"/>
<path d="M362.832 182.265C367.178 182.125 372.127 181.852 376.39 182.822C392.557 186.504 410.012 207.589 410.645 223.738C411.755 252.047 394.632 272.253 366.099 273.073C354.047 272.151 343.606 270.09 334.08 262.083C302.651 235.66 318.207 185.456 362.832 182.265ZM361.052 199.585C322.656 206.395 327.929 259.42 366.794 256.825C405.321 251.529 402.986 197.857 361.052 199.585Z" fill="#EE9A83"/>
</svg>
