<svg width="528" height="350" viewBox="0 0 528 350" fill="none" xmlns="http://www.w3.org/2000/svg">
<path d="M176.886 107.031C175.729 108.78 173.528 109.446 171.682 110.252C147.405 120.843 127.384 143.017 111.452 163.433C125.162 179.883 139.201 195.504 156.149 208.724C159.783 211.56 178.466 221.486 178.653 221.755L173.465 220.977C133.719 215.214 101.717 194.776 78.1641 163.043L78.6355 162.404C101.117 132.466 139.883 112.297 176.886 107.031Z" fill="#97BADA"/>
<path d="M176.888 107.031C201.23 102.902 220.728 103.143 244.629 107.39C246.376 109.732 248.73 110.81 251.186 112.265C273.505 125.492 290.751 144.772 308.176 163.595C303.71 167.484 299.998 172.006 295.972 176.323C281.147 192.219 264.862 209.747 244.602 218.214C243.153 218.819 241.684 219.172 240.616 220.392L240.361 220.678C222.765 223.47 196.495 225.629 178.654 221.755C178.467 221.486 159.785 211.56 156.15 208.724C139.203 195.504 125.164 179.883 111.453 163.433C127.386 143.017 147.406 120.843 171.683 110.252C173.53 109.446 175.731 108.78 176.888 107.031Z" fill="#97BADA"/>
<path d="M28.4984 0.557818C40.6321 0.0919631 52.8653 0.390155 65.0134 0.38706C98.2232 0.378756 131.432 0.37898 164.641 0.390228C181.406 0.39589 200.208 -0.766443 206.103 20.4007C209.071 31.06 206.885 68.4394 207.409 81.8322L187.077 82.1968L186.729 55.2707L22.2931 55.31L22.0842 288.461L144.09 288.544L186.657 289.025L186.691 226.888L207.243 228.06C206.765 256.746 207.202 285.455 207.178 314.146C207.144 351.722 185.616 348.761 154.509 348.762C114.036 348.763 73.5636 348.771 33.0911 348.764C-1.77663 348.758 0.0207711 327.336 0.0139828 298.774C-0.00562777 211.056 0.0516911 123.339 0.0117156 35.6204C0.00341877 16.5559 5.90697 1.51391 28.4984 0.557818ZM106.269 303.204C99.9331 303.243 87.0655 301.595 82.5709 306.233C76.696 312.296 80.4628 325.317 88.9353 326.775C93.9858 327.644 99.8448 327.143 105 327.159C112.224 327.151 121.337 328.569 126.987 323.028C135.265 314.911 131.467 303.431 118.087 303.279C114.149 303.234 110.208 303.219 106.269 303.204ZM99.6223 22.171C95.0689 22.1581 78.461 21.2371 75.7607 23.5902C73.8563 25.2487 73.7635 28.2661 75.5873 30.0031C77.9511 32.2535 103.444 31.3046 108.027 31.4752C112.498 31.3748 116.96 31.3137 121.433 31.359C126.216 31.4065 131.643 33.0266 133.378 27.1262C133.005 25.1898 132.479 24.0009 131.008 22.6096C127.138 21.2651 104.594 22.1347 99.6223 22.171Z" fill="#97BADA"/>
<path d="M296.966 119.52C295.956 91.0651 296.73 62.4834 296.778 34.0014C296.811 14.8539 300.468 0.791063 322.768 0.0128266C325.317 -0.0761017 327.854 0.324378 330.4 0.384695C340.624 0.626945 350.793 -0.0259029 360.996 0.00610531C392.148 0.10364 423.309 0.425384 454.511 0.390356C459.987 0.384166 466.214 -0.312013 471.576 0.547602C481.9 2.20267 491.93 13.3267 492.153 23.7626C492.345 32.7853 493.294 116.192 491.597 118.398C498.874 118.409 506.152 118.421 513.429 118.446C531.012 118.502 527.624 119.645 527.634 136.142C527.652 167.206 528.478 198.364 527.567 229.404C527.26 239.843 523.316 237.212 514.857 237.225C507.13 237.238 499.335 237.056 491.619 237.362C493.465 241.936 492.142 306.362 492.173 315.953C492.213 328.882 492.446 340.647 476.965 346.682C467.49 350.374 448.153 348.764 437.919 348.77C407.01 348.789 376.1 348.781 345.191 348.757C326.744 348.742 298.542 352.345 296.9 325.539C296.602 320.68 296.766 315.752 296.772 310.881C296.814 274.251 296.667 237.608 296.653 200.987C282.111 210.614 258.029 218.818 240.359 220.679L240.615 220.392C241.683 219.172 243.152 218.819 244.601 218.214C264.861 209.747 281.146 192.219 295.971 176.323C299.997 172.006 303.709 167.485 308.175 163.595C290.75 144.772 273.504 125.492 251.185 112.265C248.729 110.81 246.375 109.732 244.628 107.39C272.888 112.769 312.718 128.596 330.112 153.104C329.837 145.733 329.895 138.355 329.907 130.981C329.914 127.012 328.09 118.385 334.226 118.307L481.737 118.464C482.907 116.396 483.852 56.5204 481.673 53.7068L306.522 54.033L306.389 120.53L296.966 119.52ZM329.481 174.546C322.974 181.534 316.415 187.989 307.275 191.424L306.91 293.654L459.904 293.742L482.137 294.223C483.592 291.499 482.419 287.354 482.406 284.373C482.382 278.637 483.174 241.243 482.012 238.119L481.673 237.527C467.923 236.933 454.102 237.219 440.339 237.219C409.243 237.219 378.147 237.228 347.052 237.241C326.212 237.25 329.93 237.505 329.921 217.409C329.92 213.728 330.665 176.012 329.481 174.546ZM375.228 21.8187C372.92 21.8851 368.641 21.5341 366.643 22.5238C358.338 31.4408 373.515 31.1615 377.906 31.2528C390.091 31.5064 402.287 31.2135 414.472 31.3766C416.588 31.4091 422.49 32.0945 424.004 30.5658C426.413 28.1328 426.574 22.5306 422.263 22.055C420.114 21.8179 417.748 22.1192 415.575 22.1086C404.474 22.0535 393.279 22.3894 382.192 22.1131C379.89 22.055 377.521 21.6473 375.228 21.8187Z" fill="#97BADA"/>
<path d="M401.13 305.682C403.977 305.53 415.532 305.32 417.496 305.802L417.742 305.864C426.202 307.961 429.012 319.241 423.076 325.342C417.51 331.062 398.638 329.212 390.253 329.249C382.024 329.512 367.35 331.23 366.646 318.607C365.713 301.885 389.317 306.14 401.13 305.682Z" fill="#495B96"/>
<path d="M340.148 128.21C351.48 129.037 363.178 128.503 374.552 128.51C412.38 128.534 450.209 128.542 488.036 128.517C497.592 128.511 507.554 129.073 517.043 128.06C517.143 128.205 519.502 223.368 516.959 227.53C513.933 228.062 510.278 227.235 507.135 227.228C451.366 227.1 395.57 228.044 339.811 227.12L340.148 128.21Z" fill="#7B8BBF"/>
<path d="M368.915 147.801C401.786 146.812 436.007 147.825 469.003 147.819C475.045 147.819 481.146 147.578 487.179 147.764C494.243 147.981 494.013 157.271 487.289 158.483C483.203 159.183 369.677 158.899 368.18 158.449C366.435 157.922 364.37 154.34 363.457 152.806C364.778 150.51 366.288 148.566 368.915 147.801Z" fill="#495B96"/>
<path d="M369.238 196.658C399.931 195.883 430.704 196.558 461.413 196.566C465.769 196.566 470.333 196.291 474.666 196.659C481.514 197.242 481.09 207.873 473.117 208.622L368.422 208.495C363.643 204.538 362.366 197.941 369.238 196.658Z" fill="#495B96"/>
<path d="M373.249 171.892C405.312 170.363 440.142 171.654 472.387 171.691C477.746 171.697 483.502 171.343 488.807 172.074C493.213 172.68 497.49 182.437 483.239 182.629C450.876 183.312 418.445 182.703 386.069 182.699C380.739 182.699 375.33 182.895 370.012 182.623C364.223 182.327 363.108 176.64 368.421 172.116L373.249 171.892Z" fill="#495B96"/>
<path d="M210.438 138.108C247.8 135.393 249.917 184.785 217.758 189.959C183.849 193.154 175.623 144.37 210.438 138.108Z" fill="#495B96"/>
</svg>
